<mxfile host="app.diagrams.net" modified="2024-03-05T17:57:43.679Z" agent="Mozilla/5.0 (Windows NT 10.0; Win64; x64) AppleWebKit/537.36 (KHTML, like Gecko) Chrome/120.0.0.0 YaBrowser/24.1.0.0 Safari/537.36" etag="XBu43dx69vJdEXoZt4gH" version="23.1.7" type="device">
  <diagram name="Page-1" id="13e1069c-82ec-6db2-03f1-153e76fe0fe0">
    <mxGraphModel dx="1179" dy="676" grid="1" gridSize="10" guides="1" tooltips="1" connect="1" arrows="1" fold="1" page="1" pageScale="1" pageWidth="1100" pageHeight="850" background="none" math="0" shadow="0">
      <root>
        <mxCell id="0" />
        <mxCell id="1" parent="0" />
        <mxCell id="TzoxPDWC-vEPca3PCXGn-10" value="" style="rounded=0;whiteSpace=wrap;html=1;fillColor=none;fontStyle=1" parent="1" vertex="1">
          <mxGeometry x="70" y="380" width="420" height="210" as="geometry" />
        </mxCell>
        <mxCell id="7baba1c4bc27f4b0-2" value="Система" style="shape=umlLifeline;perimeter=lifelinePerimeter;whiteSpace=wrap;html=1;container=1;collapsible=0;recursiveResize=0;outlineConnect=0;rounded=1;shadow=0;comic=0;labelBackgroundColor=none;strokeWidth=1;fontFamily=Verdana;fontSize=12;align=center;" parent="1" vertex="1">
          <mxGeometry x="240" y="80" width="100" height="580" as="geometry" />
        </mxCell>
        <mxCell id="7baba1c4bc27f4b0-10" value="" style="html=1;points=[];perimeter=orthogonalPerimeter;rounded=0;shadow=0;comic=0;labelBackgroundColor=none;strokeWidth=1;fontFamily=Verdana;fontSize=12;align=center;" parent="7baba1c4bc27f4b0-2" vertex="1">
          <mxGeometry x="45" y="100" width="10" height="380" as="geometry" />
        </mxCell>
        <mxCell id="7baba1c4bc27f4b0-3" value="База данных" style="shape=umlLifeline;perimeter=lifelinePerimeter;whiteSpace=wrap;html=1;container=1;collapsible=0;recursiveResize=0;outlineConnect=0;rounded=1;shadow=0;comic=0;labelBackgroundColor=none;strokeWidth=1;fontFamily=Verdana;fontSize=12;align=center;" parent="1" vertex="1">
          <mxGeometry x="400" y="80" width="100" height="590" as="geometry" />
        </mxCell>
        <mxCell id="7baba1c4bc27f4b0-13" value="" style="html=1;points=[];perimeter=orthogonalPerimeter;rounded=0;shadow=0;comic=0;labelBackgroundColor=none;strokeWidth=1;fontFamily=Verdana;fontSize=12;align=center;" parent="7baba1c4bc27f4b0-3" vertex="1">
          <mxGeometry x="45" y="120" width="10" height="330" as="geometry" />
        </mxCell>
        <mxCell id="TzoxPDWC-vEPca3PCXGn-7" value="" style="shape=umlDestroy;whiteSpace=wrap;html=1;strokeWidth=3;targetShapes=umlLifeline;" parent="7baba1c4bc27f4b0-3" vertex="1">
          <mxGeometry x="35" y="560" width="30" height="30" as="geometry" />
        </mxCell>
        <mxCell id="7baba1c4bc27f4b0-11" value="Страница &lt;br&gt;авторизации" style="html=1;verticalAlign=bottom;endArrow=block;labelBackgroundColor=none;fontFamily=Verdana;fontSize=12;edgeStyle=elbowEdgeStyle;elbow=vertical;exitX=0.26;exitY=0.082;exitDx=0;exitDy=0;exitPerimeter=0;" parent="1" edge="1">
          <mxGeometry relative="1" as="geometry">
            <mxPoint x="286" y="225" as="sourcePoint" />
            <mxPoint x="158" y="226" as="targetPoint" />
          </mxGeometry>
        </mxCell>
        <mxCell id="7baba1c4bc27f4b0-14" value="Валидация данных" style="html=1;verticalAlign=bottom;endArrow=block;entryX=0;entryY=0;labelBackgroundColor=none;fontFamily=Verdana;fontSize=12;edgeStyle=elbowEdgeStyle;elbow=vertical;" parent="1" edge="1">
          <mxGeometry relative="1" as="geometry">
            <mxPoint x="295" y="350" as="sourcePoint" />
            <mxPoint x="445" y="350.0000000000002" as="targetPoint" />
          </mxGeometry>
        </mxCell>
        <mxCell id="TzoxPDWC-vEPca3PCXGn-1" value="Actor" style="shape=umlActor;verticalLabelPosition=bottom;verticalAlign=top;html=1;outlineConnect=0;" parent="1" vertex="1">
          <mxGeometry x="135" y="65" width="30" height="60" as="geometry" />
        </mxCell>
        <mxCell id="7baba1c4bc27f4b0-9" value="" style="html=1;points=[];perimeter=orthogonalPerimeter;rounded=0;shadow=0;comic=0;labelBackgroundColor=none;strokeWidth=1;fontFamily=Verdana;fontSize=12;align=center;" parent="1" vertex="1">
          <mxGeometry x="145" y="180" width="10" height="440" as="geometry" />
        </mxCell>
        <mxCell id="TzoxPDWC-vEPca3PCXGn-2" value="" style="endArrow=classic;html=1;rounded=0;exitX=0.82;exitY=0.272;exitDx=0;exitDy=0;exitPerimeter=0;" parent="1" source="7baba1c4bc27f4b0-9" target="7baba1c4bc27f4b0-10" edge="1">
          <mxGeometry width="50" height="50" relative="1" as="geometry">
            <mxPoint x="570" y="380" as="sourcePoint" />
            <mxPoint x="620" y="330" as="targetPoint" />
          </mxGeometry>
        </mxCell>
        <mxCell id="TzoxPDWC-vEPca3PCXGn-3" value="Ввод логина&lt;br&gt;&amp;nbsp;и пароля" style="edgeLabel;html=1;align=center;verticalAlign=middle;resizable=0;points=[];" parent="TzoxPDWC-vEPca3PCXGn-2" vertex="1" connectable="0">
          <mxGeometry x="0.1047" y="-2" relative="1" as="geometry">
            <mxPoint x="-6" y="-22" as="offset" />
          </mxGeometry>
        </mxCell>
        <mxCell id="TzoxPDWC-vEPca3PCXGn-4" value="" style="endArrow=none;dashed=1;html=1;dashPattern=1 3;strokeWidth=2;rounded=0;entryX=0.34;entryY=1.001;entryDx=0;entryDy=0;entryPerimeter=0;" parent="1" target="7baba1c4bc27f4b0-9" edge="1">
          <mxGeometry width="50" height="50" relative="1" as="geometry">
            <mxPoint x="148" y="660" as="sourcePoint" />
            <mxPoint x="220" y="600" as="targetPoint" />
          </mxGeometry>
        </mxCell>
        <mxCell id="TzoxPDWC-vEPca3PCXGn-5" value="" style="shape=umlDestroy;whiteSpace=wrap;html=1;strokeWidth=3;targetShapes=umlLifeline;" parent="1" vertex="1">
          <mxGeometry x="135" y="640" width="30" height="30" as="geometry" />
        </mxCell>
        <mxCell id="TzoxPDWC-vEPca3PCXGn-6" value="" style="shape=umlDestroy;whiteSpace=wrap;html=1;strokeWidth=3;targetShapes=umlLifeline;" parent="1" vertex="1">
          <mxGeometry x="275" y="640" width="30" height="30" as="geometry" />
        </mxCell>
        <mxCell id="TzoxPDWC-vEPca3PCXGn-11" value="" style="endArrow=none;html=1;rounded=0;exitX=0;exitY=0.5;exitDx=0;exitDy=0;entryX=1;entryY=0.5;entryDx=0;entryDy=0;" parent="1" source="TzoxPDWC-vEPca3PCXGn-10" target="TzoxPDWC-vEPca3PCXGn-10" edge="1">
          <mxGeometry width="50" height="50" relative="1" as="geometry">
            <mxPoint x="450" y="430" as="sourcePoint" />
            <mxPoint x="500" y="380" as="targetPoint" />
          </mxGeometry>
        </mxCell>
        <mxCell id="TzoxPDWC-vEPca3PCXGn-12" value="Успешная валидация" style="text;html=1;strokeColor=none;fillColor=none;align=center;verticalAlign=middle;whiteSpace=wrap;rounded=0;" parent="1" vertex="1">
          <mxGeometry x="70" y="380" width="70" height="40" as="geometry" />
        </mxCell>
        <mxCell id="TzoxPDWC-vEPca3PCXGn-14" value="&lt;div style=&quot;text-align: center;&quot;&gt;Ошибка&amp;nbsp;&lt;/div&gt;&lt;div style=&quot;text-align: center;&quot;&gt;валидации&lt;/div&gt;" style="text;whiteSpace=wrap;html=1;" parent="1" vertex="1">
          <mxGeometry x="75" y="490" width="65" height="40" as="geometry" />
        </mxCell>
        <mxCell id="TzoxPDWC-vEPca3PCXGn-18" value="" style="endArrow=classic;html=1;rounded=0;entryX=1.08;entryY=0.675;entryDx=0;entryDy=0;entryPerimeter=0;" parent="1" source="7baba1c4bc27f4b0-13" target="7baba1c4bc27f4b0-10" edge="1">
          <mxGeometry width="50" height="50" relative="1" as="geometry">
            <mxPoint x="450" y="530" as="sourcePoint" />
            <mxPoint x="500" y="480" as="targetPoint" />
          </mxGeometry>
        </mxCell>
        <mxCell id="TzoxPDWC-vEPca3PCXGn-19" value="Данные &lt;br&gt;отвалидированы" style="edgeLabel;html=1;align=center;verticalAlign=middle;resizable=0;points=[];" parent="TzoxPDWC-vEPca3PCXGn-18" vertex="1" connectable="0">
          <mxGeometry x="0.1287" y="-4" relative="1" as="geometry">
            <mxPoint x="9" y="-12" as="offset" />
          </mxGeometry>
        </mxCell>
        <mxCell id="TzoxPDWC-vEPca3PCXGn-20" value="" style="endArrow=classic;html=1;rounded=0;exitX=0.28;exitY=0.771;exitDx=0;exitDy=0;exitPerimeter=0;" parent="1" source="7baba1c4bc27f4b0-10" target="7baba1c4bc27f4b0-9" edge="1">
          <mxGeometry width="50" height="50" relative="1" as="geometry">
            <mxPoint x="280" y="450" as="sourcePoint" />
            <mxPoint x="155" y="455" as="targetPoint" />
          </mxGeometry>
        </mxCell>
        <mxCell id="TzoxPDWC-vEPca3PCXGn-21" value="Предоставление &lt;br&gt;прав доступа &lt;br&gt;к личным данным" style="edgeLabel;html=1;align=center;verticalAlign=middle;resizable=0;points=[];" parent="TzoxPDWC-vEPca3PCXGn-20" vertex="1" connectable="0">
          <mxGeometry x="0.1287" y="-4" relative="1" as="geometry">
            <mxPoint x="13" y="-21" as="offset" />
          </mxGeometry>
        </mxCell>
        <mxCell id="TzoxPDWC-vEPca3PCXGn-22" value="" style="endArrow=classic;html=1;rounded=0;entryX=1;entryY=0.894;entryDx=0;entryDy=0;entryPerimeter=0;exitX=0.28;exitY=0.973;exitDx=0;exitDy=0;exitPerimeter=0;" parent="1" source="7baba1c4bc27f4b0-13" target="7baba1c4bc27f4b0-10" edge="1">
          <mxGeometry width="50" height="50" relative="1" as="geometry">
            <mxPoint x="449" y="520" as="sourcePoint" />
            <mxPoint x="300" y="520" as="targetPoint" />
          </mxGeometry>
        </mxCell>
        <mxCell id="TzoxPDWC-vEPca3PCXGn-23" value="Данные &lt;br&gt;не валидны" style="edgeLabel;html=1;align=center;verticalAlign=middle;resizable=0;points=[];" parent="TzoxPDWC-vEPca3PCXGn-22" vertex="1" connectable="0">
          <mxGeometry x="0.1287" y="-4" relative="1" as="geometry">
            <mxPoint x="9" y="-12" as="offset" />
          </mxGeometry>
        </mxCell>
        <mxCell id="TzoxPDWC-vEPca3PCXGn-25" value="Страница &lt;br&gt;авторизации" style="html=1;verticalAlign=bottom;endArrow=block;labelBackgroundColor=none;fontFamily=Verdana;fontSize=12;edgeStyle=elbowEdgeStyle;elbow=vertical;exitX=0.12;exitY=0.919;exitDx=0;exitDy=0;exitPerimeter=0;" parent="1" source="7baba1c4bc27f4b0-10" edge="1">
          <mxGeometry relative="1" as="geometry">
            <mxPoint x="270" y="530" as="sourcePoint" />
            <mxPoint x="160" y="530" as="targetPoint" />
            <Array as="points">
              <mxPoint x="220" y="530" />
            </Array>
          </mxGeometry>
        </mxCell>
        <mxCell id="yDGyhuOsiL56oJK68LBb-2" value="Система" style="shape=umlLifeline;perimeter=lifelinePerimeter;whiteSpace=wrap;html=1;container=1;collapsible=0;recursiveResize=0;outlineConnect=0;rounded=1;shadow=0;comic=0;labelBackgroundColor=none;strokeWidth=1;fontFamily=Verdana;fontSize=12;align=center;" vertex="1" parent="1">
          <mxGeometry x="705" y="65" width="100" height="620" as="geometry" />
        </mxCell>
        <mxCell id="yDGyhuOsiL56oJK68LBb-3" value="" style="html=1;points=[];perimeter=orthogonalPerimeter;rounded=0;shadow=0;comic=0;labelBackgroundColor=none;strokeWidth=1;fontFamily=Verdana;fontSize=12;align=center;" vertex="1" parent="yDGyhuOsiL56oJK68LBb-2">
          <mxGeometry x="45" y="100" width="10" height="380" as="geometry" />
        </mxCell>
        <mxCell id="yDGyhuOsiL56oJK68LBb-4" value="База данных" style="shape=umlLifeline;perimeter=lifelinePerimeter;whiteSpace=wrap;html=1;container=1;collapsible=0;recursiveResize=0;outlineConnect=0;rounded=1;shadow=0;comic=0;labelBackgroundColor=none;strokeWidth=1;fontFamily=Verdana;fontSize=12;align=center;" vertex="1" parent="1">
          <mxGeometry x="865" y="60" width="100" height="590" as="geometry" />
        </mxCell>
        <mxCell id="yDGyhuOsiL56oJK68LBb-5" value="" style="html=1;points=[];perimeter=orthogonalPerimeter;rounded=0;shadow=0;comic=0;labelBackgroundColor=none;strokeWidth=1;fontFamily=Verdana;fontSize=12;align=center;" vertex="1" parent="yDGyhuOsiL56oJK68LBb-4">
          <mxGeometry x="45" y="120" width="10" height="330" as="geometry" />
        </mxCell>
        <mxCell id="yDGyhuOsiL56oJK68LBb-7" value="Страница &lt;br&gt;Расписания" style="html=1;verticalAlign=bottom;endArrow=block;labelBackgroundColor=none;fontFamily=Verdana;fontSize=12;edgeStyle=elbowEdgeStyle;elbow=vertical;exitX=0.26;exitY=0.082;exitDx=0;exitDy=0;exitPerimeter=0;" edge="1" parent="1">
          <mxGeometry x="0.0078" relative="1" as="geometry">
            <mxPoint x="751" y="265" as="sourcePoint" />
            <mxPoint x="623" y="266" as="targetPoint" />
            <mxPoint as="offset" />
          </mxGeometry>
        </mxCell>
        <mxCell id="yDGyhuOsiL56oJK68LBb-8" value="Запрос на &lt;br&gt;добавление данных" style="html=1;verticalAlign=bottom;endArrow=block;entryX=0;entryY=0;labelBackgroundColor=none;fontFamily=Verdana;fontSize=12;edgeStyle=elbowEdgeStyle;elbow=vertical;" edge="1" parent="1">
          <mxGeometry relative="1" as="geometry">
            <mxPoint x="760" y="365" as="sourcePoint" />
            <mxPoint x="910" y="365.0000000000002" as="targetPoint" />
          </mxGeometry>
        </mxCell>
        <mxCell id="yDGyhuOsiL56oJK68LBb-9" value="Actor" style="shape=umlActor;verticalLabelPosition=bottom;verticalAlign=top;html=1;outlineConnect=0;" vertex="1" parent="1">
          <mxGeometry x="600" y="55" width="30" height="60" as="geometry" />
        </mxCell>
        <mxCell id="yDGyhuOsiL56oJK68LBb-10" value="" style="html=1;points=[];perimeter=orthogonalPerimeter;rounded=0;shadow=0;comic=0;labelBackgroundColor=none;strokeWidth=1;fontFamily=Verdana;fontSize=12;align=center;" vertex="1" parent="1">
          <mxGeometry x="610" y="165" width="10" height="495" as="geometry" />
        </mxCell>
        <mxCell id="yDGyhuOsiL56oJK68LBb-11" value="" style="endArrow=classic;html=1;rounded=0;exitX=0.82;exitY=0.272;exitDx=0;exitDy=0;exitPerimeter=0;" edge="1" parent="1">
          <mxGeometry width="50" height="50" relative="1" as="geometry">
            <mxPoint x="620" y="335" as="sourcePoint" />
            <mxPoint x="751.8" y="335" as="targetPoint" />
          </mxGeometry>
        </mxCell>
        <mxCell id="yDGyhuOsiL56oJK68LBb-12" value="Выбор и &lt;br&gt;редактирование занятия" style="edgeLabel;html=1;align=center;verticalAlign=middle;resizable=0;points=[];" vertex="1" connectable="0" parent="yDGyhuOsiL56oJK68LBb-11">
          <mxGeometry x="0.1047" y="-2" relative="1" as="geometry">
            <mxPoint x="-6" y="-22" as="offset" />
          </mxGeometry>
        </mxCell>
        <mxCell id="yDGyhuOsiL56oJK68LBb-13" value="" style="endArrow=none;dashed=1;html=1;dashPattern=1 3;strokeWidth=2;rounded=0;entryX=0.34;entryY=1.001;entryDx=0;entryDy=0;entryPerimeter=0;" edge="1" parent="1" target="yDGyhuOsiL56oJK68LBb-10">
          <mxGeometry width="50" height="50" relative="1" as="geometry">
            <mxPoint x="613" y="700" as="sourcePoint" />
            <mxPoint x="685" y="640" as="targetPoint" />
          </mxGeometry>
        </mxCell>
        <mxCell id="yDGyhuOsiL56oJK68LBb-14" value="" style="shape=umlDestroy;whiteSpace=wrap;html=1;strokeWidth=3;targetShapes=umlLifeline;" vertex="1" parent="1">
          <mxGeometry x="600" y="680" width="30" height="30" as="geometry" />
        </mxCell>
        <mxCell id="yDGyhuOsiL56oJK68LBb-15" value="" style="shape=umlDestroy;whiteSpace=wrap;html=1;strokeWidth=3;targetShapes=umlLifeline;" vertex="1" parent="1">
          <mxGeometry x="740" y="680" width="30" height="30" as="geometry" />
        </mxCell>
        <mxCell id="yDGyhuOsiL56oJK68LBb-19" value="" style="endArrow=classic;html=1;rounded=0;entryX=1.08;entryY=0.675;entryDx=0;entryDy=0;entryPerimeter=0;" edge="1" parent="1">
          <mxGeometry width="50" height="50" relative="1" as="geometry">
            <mxPoint x="910" y="399.5" as="sourcePoint" />
            <mxPoint x="760.8" y="399.5" as="targetPoint" />
          </mxGeometry>
        </mxCell>
        <mxCell id="yDGyhuOsiL56oJK68LBb-28" value="Ответ на запрос" style="edgeLabel;html=1;align=center;verticalAlign=middle;resizable=0;points=[];" vertex="1" connectable="0" parent="yDGyhuOsiL56oJK68LBb-19">
          <mxGeometry x="0.1072" y="-6" relative="1" as="geometry">
            <mxPoint x="8" y="-5" as="offset" />
          </mxGeometry>
        </mxCell>
        <mxCell id="yDGyhuOsiL56oJK68LBb-21" value="" style="endArrow=classic;html=1;rounded=0;exitX=0.28;exitY=0.771;exitDx=0;exitDy=0;exitPerimeter=0;" edge="1" parent="1" source="yDGyhuOsiL56oJK68LBb-3" target="yDGyhuOsiL56oJK68LBb-10">
          <mxGeometry width="50" height="50" relative="1" as="geometry">
            <mxPoint x="745" y="490" as="sourcePoint" />
            <mxPoint x="620" y="495" as="targetPoint" />
          </mxGeometry>
        </mxCell>
        <mxCell id="yDGyhuOsiL56oJK68LBb-22" value="Обновленная страница &lt;br&gt;Расписания" style="edgeLabel;html=1;align=center;verticalAlign=middle;resizable=0;points=[];" vertex="1" connectable="0" parent="yDGyhuOsiL56oJK68LBb-21">
          <mxGeometry x="0.1287" y="-4" relative="1" as="geometry">
            <mxPoint x="7" y="-19" as="offset" />
          </mxGeometry>
        </mxCell>
        <mxCell id="yDGyhuOsiL56oJK68LBb-29" value="" style="endArrow=classic;html=1;rounded=0;exitX=0.94;exitY=0.098;exitDx=0;exitDy=0;exitPerimeter=0;" edge="1" parent="1" source="yDGyhuOsiL56oJK68LBb-3" target="yDGyhuOsiL56oJK68LBb-4">
          <mxGeometry width="50" height="50" relative="1" as="geometry">
            <mxPoint x="645" y="385" as="sourcePoint" />
            <mxPoint x="905" y="249" as="targetPoint" />
            <Array as="points">
              <mxPoint x="835" y="205" />
            </Array>
          </mxGeometry>
        </mxCell>
        <mxCell id="yDGyhuOsiL56oJK68LBb-30" value="Запрос на &lt;br&gt;вытягивание данных" style="edgeLabel;html=1;align=center;verticalAlign=middle;resizable=0;points=[];" vertex="1" connectable="0" parent="yDGyhuOsiL56oJK68LBb-29">
          <mxGeometry x="0.0751" y="4" relative="1" as="geometry">
            <mxPoint x="-3" y="-5" as="offset" />
          </mxGeometry>
        </mxCell>
        <mxCell id="yDGyhuOsiL56oJK68LBb-31" value="" style="edgeStyle=none;orthogonalLoop=1;jettySize=auto;html=1;rounded=0;" edge="1" parent="1" source="yDGyhuOsiL56oJK68LBb-10" target="yDGyhuOsiL56oJK68LBb-2">
          <mxGeometry width="100" relative="1" as="geometry">
            <mxPoint x="575" y="185" as="sourcePoint" />
            <mxPoint x="675" y="185" as="targetPoint" />
            <Array as="points">
              <mxPoint x="685" y="185" />
            </Array>
          </mxGeometry>
        </mxCell>
        <mxCell id="yDGyhuOsiL56oJK68LBb-32" value="Запрос страницы&lt;br&gt;&amp;nbsp;с расписанием" style="edgeLabel;html=1;align=center;verticalAlign=middle;resizable=0;points=[];" vertex="1" connectable="0" parent="yDGyhuOsiL56oJK68LBb-31">
          <mxGeometry x="-0.2208" y="3" relative="1" as="geometry">
            <mxPoint as="offset" />
          </mxGeometry>
        </mxCell>
        <mxCell id="yDGyhuOsiL56oJK68LBb-33" value="" style="endArrow=classic;html=1;rounded=0;exitX=0.3;exitY=0.164;exitDx=0;exitDy=0;exitPerimeter=0;" edge="1" parent="1" source="yDGyhuOsiL56oJK68LBb-5" target="yDGyhuOsiL56oJK68LBb-3">
          <mxGeometry width="50" height="50" relative="1" as="geometry">
            <mxPoint x="900" y="245" as="sourcePoint" />
            <mxPoint x="751" y="245" as="targetPoint" />
          </mxGeometry>
        </mxCell>
        <mxCell id="yDGyhuOsiL56oJK68LBb-34" value="Ответ на запрос" style="edgeLabel;html=1;align=center;verticalAlign=middle;resizable=0;points=[];" vertex="1" connectable="0" parent="yDGyhuOsiL56oJK68LBb-33">
          <mxGeometry x="0.1072" y="-6" relative="1" as="geometry">
            <mxPoint x="8" y="-5" as="offset" />
          </mxGeometry>
        </mxCell>
        <mxCell id="yDGyhuOsiL56oJK68LBb-6" value="" style="shape=umlDestroy;whiteSpace=wrap;html=1;strokeWidth=3;targetShapes=umlLifeline;" vertex="1" parent="1">
          <mxGeometry x="900" y="685" width="30" height="30" as="geometry" />
        </mxCell>
        <mxCell id="yDGyhuOsiL56oJK68LBb-35" value="Система" style="shape=umlLifeline;perimeter=lifelinePerimeter;whiteSpace=wrap;html=1;container=1;collapsible=0;recursiveResize=0;outlineConnect=0;rounded=1;shadow=0;comic=0;labelBackgroundColor=none;strokeWidth=1;fontFamily=Verdana;fontSize=12;align=center;" vertex="1" parent="1">
          <mxGeometry x="1175" y="75" width="100" height="620" as="geometry" />
        </mxCell>
        <mxCell id="yDGyhuOsiL56oJK68LBb-36" value="" style="html=1;points=[];perimeter=orthogonalPerimeter;rounded=0;shadow=0;comic=0;labelBackgroundColor=none;strokeWidth=1;fontFamily=Verdana;fontSize=12;align=center;" vertex="1" parent="yDGyhuOsiL56oJK68LBb-35">
          <mxGeometry x="45" y="100" width="10" height="380" as="geometry" />
        </mxCell>
        <mxCell id="yDGyhuOsiL56oJK68LBb-37" value="База данных" style="shape=umlLifeline;perimeter=lifelinePerimeter;whiteSpace=wrap;html=1;container=1;collapsible=0;recursiveResize=0;outlineConnect=0;rounded=1;shadow=0;comic=0;labelBackgroundColor=none;strokeWidth=1;fontFamily=Verdana;fontSize=12;align=center;" vertex="1" parent="1">
          <mxGeometry x="1335" y="70" width="100" height="590" as="geometry" />
        </mxCell>
        <mxCell id="yDGyhuOsiL56oJK68LBb-38" value="" style="html=1;points=[];perimeter=orthogonalPerimeter;rounded=0;shadow=0;comic=0;labelBackgroundColor=none;strokeWidth=1;fontFamily=Verdana;fontSize=12;align=center;" vertex="1" parent="yDGyhuOsiL56oJK68LBb-37">
          <mxGeometry x="45" y="120" width="10" height="330" as="geometry" />
        </mxCell>
        <mxCell id="yDGyhuOsiL56oJK68LBb-39" value="Страница &lt;br&gt;Задачи" style="html=1;verticalAlign=bottom;endArrow=block;labelBackgroundColor=none;fontFamily=Verdana;fontSize=12;edgeStyle=elbowEdgeStyle;elbow=vertical;exitX=0.26;exitY=0.082;exitDx=0;exitDy=0;exitPerimeter=0;" edge="1" parent="1">
          <mxGeometry x="0.0078" relative="1" as="geometry">
            <mxPoint x="1221" y="275" as="sourcePoint" />
            <mxPoint x="1093" y="276" as="targetPoint" />
            <mxPoint as="offset" />
          </mxGeometry>
        </mxCell>
        <mxCell id="yDGyhuOsiL56oJK68LBb-40" value="Запрос на &lt;br&gt;добавление данных" style="html=1;verticalAlign=bottom;endArrow=block;entryX=0;entryY=0;labelBackgroundColor=none;fontFamily=Verdana;fontSize=12;edgeStyle=elbowEdgeStyle;elbow=vertical;" edge="1" parent="1">
          <mxGeometry relative="1" as="geometry">
            <mxPoint x="1230" y="375" as="sourcePoint" />
            <mxPoint x="1380" y="375.0000000000002" as="targetPoint" />
          </mxGeometry>
        </mxCell>
        <mxCell id="yDGyhuOsiL56oJK68LBb-41" value="Actor" style="shape=umlActor;verticalLabelPosition=bottom;verticalAlign=top;html=1;outlineConnect=0;" vertex="1" parent="1">
          <mxGeometry x="1070" y="65" width="30" height="60" as="geometry" />
        </mxCell>
        <mxCell id="yDGyhuOsiL56oJK68LBb-42" value="" style="html=1;points=[];perimeter=orthogonalPerimeter;rounded=0;shadow=0;comic=0;labelBackgroundColor=none;strokeWidth=1;fontFamily=Verdana;fontSize=12;align=center;" vertex="1" parent="1">
          <mxGeometry x="1080" y="175" width="10" height="495" as="geometry" />
        </mxCell>
        <mxCell id="yDGyhuOsiL56oJK68LBb-43" value="" style="endArrow=classic;html=1;rounded=0;exitX=0.82;exitY=0.272;exitDx=0;exitDy=0;exitPerimeter=0;" edge="1" parent="1">
          <mxGeometry width="50" height="50" relative="1" as="geometry">
            <mxPoint x="1090" y="345" as="sourcePoint" />
            <mxPoint x="1221.8" y="345" as="targetPoint" />
          </mxGeometry>
        </mxCell>
        <mxCell id="yDGyhuOsiL56oJK68LBb-44" value="Выбор и &lt;br&gt;редактирование&amp;nbsp;" style="edgeLabel;html=1;align=center;verticalAlign=middle;resizable=0;points=[];" vertex="1" connectable="0" parent="yDGyhuOsiL56oJK68LBb-43">
          <mxGeometry x="0.1047" y="-2" relative="1" as="geometry">
            <mxPoint x="-6" y="-22" as="offset" />
          </mxGeometry>
        </mxCell>
        <mxCell id="yDGyhuOsiL56oJK68LBb-45" value="" style="endArrow=none;dashed=1;html=1;dashPattern=1 3;strokeWidth=2;rounded=0;entryX=0.34;entryY=1.001;entryDx=0;entryDy=0;entryPerimeter=0;" edge="1" parent="1" target="yDGyhuOsiL56oJK68LBb-42">
          <mxGeometry width="50" height="50" relative="1" as="geometry">
            <mxPoint x="1083" y="710" as="sourcePoint" />
            <mxPoint x="1155" y="650" as="targetPoint" />
          </mxGeometry>
        </mxCell>
        <mxCell id="yDGyhuOsiL56oJK68LBb-46" value="" style="shape=umlDestroy;whiteSpace=wrap;html=1;strokeWidth=3;targetShapes=umlLifeline;" vertex="1" parent="1">
          <mxGeometry x="1070" y="690" width="30" height="30" as="geometry" />
        </mxCell>
        <mxCell id="yDGyhuOsiL56oJK68LBb-47" value="" style="shape=umlDestroy;whiteSpace=wrap;html=1;strokeWidth=3;targetShapes=umlLifeline;" vertex="1" parent="1">
          <mxGeometry x="1210" y="690" width="30" height="30" as="geometry" />
        </mxCell>
        <mxCell id="yDGyhuOsiL56oJK68LBb-48" value="" style="endArrow=classic;html=1;rounded=0;entryX=1.08;entryY=0.675;entryDx=0;entryDy=0;entryPerimeter=0;" edge="1" parent="1">
          <mxGeometry width="50" height="50" relative="1" as="geometry">
            <mxPoint x="1380" y="409.5" as="sourcePoint" />
            <mxPoint x="1230.8" y="409.5" as="targetPoint" />
          </mxGeometry>
        </mxCell>
        <mxCell id="yDGyhuOsiL56oJK68LBb-49" value="Ответ на запрос" style="edgeLabel;html=1;align=center;verticalAlign=middle;resizable=0;points=[];" vertex="1" connectable="0" parent="yDGyhuOsiL56oJK68LBb-48">
          <mxGeometry x="0.1072" y="-6" relative="1" as="geometry">
            <mxPoint x="8" y="-5" as="offset" />
          </mxGeometry>
        </mxCell>
        <mxCell id="yDGyhuOsiL56oJK68LBb-50" value="" style="endArrow=classic;html=1;rounded=0;exitX=0.28;exitY=0.771;exitDx=0;exitDy=0;exitPerimeter=0;" edge="1" parent="1" source="yDGyhuOsiL56oJK68LBb-36" target="yDGyhuOsiL56oJK68LBb-42">
          <mxGeometry width="50" height="50" relative="1" as="geometry">
            <mxPoint x="1215" y="500" as="sourcePoint" />
            <mxPoint x="1090" y="505" as="targetPoint" />
          </mxGeometry>
        </mxCell>
        <mxCell id="yDGyhuOsiL56oJK68LBb-51" value="Обновленная страница &lt;br&gt;Задачи" style="edgeLabel;html=1;align=center;verticalAlign=middle;resizable=0;points=[];" vertex="1" connectable="0" parent="yDGyhuOsiL56oJK68LBb-50">
          <mxGeometry x="0.1287" y="-4" relative="1" as="geometry">
            <mxPoint x="7" y="-19" as="offset" />
          </mxGeometry>
        </mxCell>
        <mxCell id="yDGyhuOsiL56oJK68LBb-52" value="" style="endArrow=classic;html=1;rounded=0;exitX=0.94;exitY=0.098;exitDx=0;exitDy=0;exitPerimeter=0;" edge="1" parent="1" source="yDGyhuOsiL56oJK68LBb-36" target="yDGyhuOsiL56oJK68LBb-37">
          <mxGeometry width="50" height="50" relative="1" as="geometry">
            <mxPoint x="1115" y="395" as="sourcePoint" />
            <mxPoint x="1375" y="259" as="targetPoint" />
            <Array as="points">
              <mxPoint x="1305" y="215" />
            </Array>
          </mxGeometry>
        </mxCell>
        <mxCell id="yDGyhuOsiL56oJK68LBb-53" value="Запрос на &lt;br&gt;вытягивание данных" style="edgeLabel;html=1;align=center;verticalAlign=middle;resizable=0;points=[];" vertex="1" connectable="0" parent="yDGyhuOsiL56oJK68LBb-52">
          <mxGeometry x="0.0751" y="4" relative="1" as="geometry">
            <mxPoint x="-3" y="-5" as="offset" />
          </mxGeometry>
        </mxCell>
        <mxCell id="yDGyhuOsiL56oJK68LBb-54" value="" style="edgeStyle=none;orthogonalLoop=1;jettySize=auto;html=1;rounded=0;" edge="1" parent="1" source="yDGyhuOsiL56oJK68LBb-42" target="yDGyhuOsiL56oJK68LBb-35">
          <mxGeometry width="100" relative="1" as="geometry">
            <mxPoint x="1045" y="195" as="sourcePoint" />
            <mxPoint x="1145" y="195" as="targetPoint" />
            <Array as="points">
              <mxPoint x="1155" y="195" />
            </Array>
          </mxGeometry>
        </mxCell>
        <mxCell id="yDGyhuOsiL56oJK68LBb-55" value="Запрос страницы&lt;br&gt;&amp;nbsp;Задачи" style="edgeLabel;html=1;align=center;verticalAlign=middle;resizable=0;points=[];" vertex="1" connectable="0" parent="yDGyhuOsiL56oJK68LBb-54">
          <mxGeometry x="-0.2208" y="3" relative="1" as="geometry">
            <mxPoint as="offset" />
          </mxGeometry>
        </mxCell>
        <mxCell id="yDGyhuOsiL56oJK68LBb-56" value="" style="endArrow=classic;html=1;rounded=0;exitX=0.3;exitY=0.164;exitDx=0;exitDy=0;exitPerimeter=0;" edge="1" parent="1" source="yDGyhuOsiL56oJK68LBb-38" target="yDGyhuOsiL56oJK68LBb-36">
          <mxGeometry width="50" height="50" relative="1" as="geometry">
            <mxPoint x="1370" y="255" as="sourcePoint" />
            <mxPoint x="1221" y="255" as="targetPoint" />
          </mxGeometry>
        </mxCell>
        <mxCell id="yDGyhuOsiL56oJK68LBb-57" value="Ответ на запрос" style="edgeLabel;html=1;align=center;verticalAlign=middle;resizable=0;points=[];" vertex="1" connectable="0" parent="yDGyhuOsiL56oJK68LBb-56">
          <mxGeometry x="0.1072" y="-6" relative="1" as="geometry">
            <mxPoint x="8" y="-5" as="offset" />
          </mxGeometry>
        </mxCell>
        <mxCell id="yDGyhuOsiL56oJK68LBb-58" value="" style="shape=umlDestroy;whiteSpace=wrap;html=1;strokeWidth=3;targetShapes=umlLifeline;" vertex="1" parent="1">
          <mxGeometry x="1370" y="695" width="30" height="30" as="geometry" />
        </mxCell>
      </root>
    </mxGraphModel>
  </diagram>
</mxfile>
